{
    "asset" : {
        "generator" : "Khronos glTF Blender I/O v1.4.40",
        "version" : "2.0"
    },
    "extensionsUsed" : [
        "KHR_lights_punctual"
    ],
    "extensionsRequired" : [
        "KHR_lights_punctual"
    ],
    "extensions" : {
        "KHR_lights_punctual" : {
            "lights" : [
                {
                    "color" : [
                        0.800000011920929,
                        0.800000011920929,
                        1
                    ],
                    "intensity" : 0.5,
                    "type" : "point",
                    "name" : "Point"
                }
            ]
        }
    },
    "scene" : 0,
    "scenes" : [
        {
            "name" : "Scene",
            "nodes" : [
                0,
                2
            ]
        }
    ],
    "nodes" : [
        {
            "mesh" : 0,
            "name" : "Logo",
            "scale" : [
                -1,
                1,
                1
            ]
        },
        {
            "extensions" : {
                "KHR_lights_punctual" : {
                    "light" : 0
                }
            },
            "name" : "Point_Orientation",
            "rotation" : [
                -0.7071067690849304,
                0,
                0,
                0.7071067690849304
            ]
        },
        {
            "children" : [
                1
            ],
            "name" : "Point",
            "translation" : [
                -14.172565460205078,
                1.0255484580993652,
                25.869112014770508
            ]
        }
    ],
    "materials" : [
        {
            "doubleSided" : true,
            "name" : "Logo",
            "pbrMetallicRoughness" : {
                "baseColorTexture" : {
                    "index" : 0,
                    "texCoord" : 0
                },
                "metallicFactor" : 0.5090909004211426,
                "roughnessFactor" : 0.4590909481048584
            }
        }
    ],
    "meshes" : [
        {
            "name" : "NurbsPath",
            "primitives" : [
                {
                    "attributes" : {
                        "POSITION" : 0,
                        "NORMAL" : 1,
                        "TEXCOORD_0" : 2
                    },
                    "indices" : 3,
                    "material" : 0
                }
            ]
        }
    ],
    "textures" : [
        {
            "sampler" : 0,
            "source" : 0
        }
    ],
    "images" : [
        {
            "bufferView" : 4,
            "mimeType" : "image/png",
            "name" : "Innlandet Final"
        }
    ],
    "accessors" : [
        {
            "bufferView" : 0,
            "componentType" : 5126,
            "count" : 790,
            "max" : [
                2.1772918701171875,
                2.370931386947632,
                0.2388979196548462
            ],
            "min" : [
                -2.1772918701171875,
                -3.0984392166137695,
                -0.23889806866645813
            ],
            "type" : "VEC3"
        },
        {
            "bufferView" : 1,
            "componentType" : 5126,
            "count" : 790,
            "type" : "VEC3"
        },
        {
            "bufferView" : 2,
            "componentType" : 5126,
            "count" : 790,
            "type" : "VEC2"
        },
        {
            "bufferView" : 3,
            "componentType" : 5123,
            "count" : 1692,
            "type" : "SCALAR"
        }
    ],
    "bufferViews" : [
        {
            "buffer" : 0,
            "byteLength" : 9480,
            "byteOffset" : 0
        },
        {
            "buffer" : 0,
            "byteLength" : 9480,
            "byteOffset" : 9480
        },
        {
            "buffer" : 0,
            "byteLength" : 6320,
            "byteOffset" : 18960
        },
        {
            "buffer" : 0,
            "byteLength" : 3384,
            "byteOffset" : 25280
        },
        {
            "buffer" : 0,
            "byteLength" : 36309,
            "byteOffset" : 28664
        }
    ],
    "samplers" : [
        {
            "magFilter" : 9729,
            "minFilter" : 9986
        }
    ],
    "buffers" : [
        {
            "byteLength" : 64976,
            "uri" : "data:application/octet-stream;base64,"
        }
    ]
}
